<svg width="64" height="64" viewBox="0 0 64 64" fill="none" xmlns="http://www.w3.org/2000/svg">
  <path d="M43.7865 13.0426C39.6958 10.368 35.4834 9 31.0003 9C21.0592 9 13.0003 17.0589 13.0003 27C13.0003 30.6548 14.1278 34.0182 16.0003 36.75C16.5864 37.6433 17.0003 38.6946 17.0003 40V49C17.0003 52.3137 19.6866 55 23.0003 55H28.0003" stroke="#4F46E5" stroke-width="3" stroke-linecap="round" stroke-linejoin="round"/>
  <path d="M20.2139 13.0426C24.3046 10.368 28.517 9 33.0001 9C42.9412 9 51.0001 17.0589 51.0001 27C51.0001 30.6548 49.8726 34.0182 48.0001 36.75C47.414 37.6433 47.0001 38.6946 47.0001 40V49C47.0001 52.3137 44.3138 55 41.0001 55H36.0001" stroke="#4F46E5" stroke-width="3" stroke-linecap="round" stroke-linejoin="round"/>
  <path d="M27 23L23 27L27 31" stroke="#34D399" stroke-width="3" stroke-linecap="round" stroke-linejoin="round"/>
  <path d="M37 23L41 27L37 31" stroke="#34D399" stroke-width="3" stroke-linecap="round" stroke-linejoin="round"/>
</svg>